<svg id="Layer_1" data-name="Layer 1" xmlns="http://www.w3.org/2000/svg" xmlns:xlink="http://www.w3.org/1999/xlink" viewBox="0 0 720 186.06"><defs><style>.cls-1{fill:url(#linear-gradient);}.cls-2{opacity:0.7;}.cls-3{fill:#382020;}.cls-4{fill:#fff;}.cls-5{fill:#563f25;opacity:0.47;}.cls-15,.cls-6{fill:#ffa800;stroke:#4c0a00;}.cls-15,.cls-6,.cls-7,.cls-8{stroke-miterlimit:10;}.cls-6,.cls-7,.cls-8{stroke-width:7px;}.cls-7,.cls-8{fill:none;}.cls-7{stroke:#ff5400;}.cls-8{stroke:#ff0200;}.cls-9{fill:#fdb73e;}.cls-10{fill:#fee0af;}.cls-11{fill:#d8d2b8;}.cls-12{opacity:0.8;isolation:isolate;}.cls-13{fill:#a1b8c7;}.cls-14{fill:#42ade2;}.cls-15{stroke-width:4px;}.cls-16{fill:#4c0a00;}</style><linearGradient id="linear-gradient" x1="42.18" y1="-38.9" x2="751.09" y2="262.01" gradientUnits="userSpaceOnUse"><stop offset="0.09" stop-color="#6e511b"/><stop offset="0.39" stop-color="#836830"/><stop offset="0.94" stop-color="#a68f53"/></linearGradient></defs><rect id="Background" class="cls-1" width="720" height="192"/><g id="Effects"><g class="cls-2"><path class="cls-3" d="M347.84-.86c.69-.39,1.17.23,2-.13a2.49,2.49,0,0,1-.13,3.22,2.27,2.27,0,0,1-2.86-.57A2.43,2.43,0,0,1,347.84-.86Z"/><path class="cls-3" d="M43.28,39.4c-.06.73-1,1.48-1.65.68l-.33-.74C41.7,38.61,43,38.49,43.28,39.4Z"/><rect class="cls-3" x="235.58" y="64.35" width="0.28" height="0.79" transform="translate(121.67 280.96) rotate(-77.55)"/><path class="cls-3" d="M48.29,36.92c.27.17.11.4,0,.66-.37.18-1.3.12-1.14-.48C47.55,36.92,47.84,36.62,48.29,36.92Z"/><path class="cls-3" d="M245.64,69.63l-.2.93c-1.74.4-3-1-3.57-2.44C242.84,68.52,245,68.2,245.64,69.63Z"/><path class="cls-3" d="M58,48.2c.14,1.14-.17,2.36-1.77,1.95a2.29,2.29,0,0,1-1.07-2C55.83,47.36,57.27,47.54,58,48.2Z"/><path class="cls-3" d="M424.71,80.82c-.18-.14-.3-.57-.62-.54l1.37-.78c-.65-2.09,2.12-.88,2.34-2.09,2.23.18,3.15.76,4.69,2.59.26,2-.34,1.92-.18,3.9-1.54,0-.56,3.77-3.13,2.49-1.4,1-2.11-.91-3.64-.44.94,0-.31-1.09-.74-1.58l-.87-.36c1.07-.74.31-1.72-.37-2.56C424.2,81.87,424.35,81.07,424.71,80.82Z"/><path class="cls-3" d="M137,21.92a1,1,0,0,1,.21,1.32c-.7.25-.89.2-1.39-.35C136.19,22.47,136,21.48,137,21.92Z"/><path class="cls-3" d="M159.32,26.26c.34.29.84.41,1,1-.55.52-.21,1.32-1.2,1.51A1.25,1.25,0,0,1,159.32,26.26Z"/><polygon class="cls-3" points="81.95 7.79 80.44 7.86 81.01 7.36 81.95 7.79"/><path class="cls-3" d="M88.81,12.52c.77.66,2,1.25,1.2,2.26-1.79,1.67-4.19-.43-5.63-1l-.38-.1c.45-.15,0-.74.46-1-1.89,0-.29-1.73-2-1.82A10.49,10.49,0,0,1,88.81,12.52Z"/><path class="cls-3" d="M170,.47c.85-.1.42.85.64,1.22a.78.78,0,0,1-1.38-.33C169.24.85,169.59.72,170,.47Z"/><path class="cls-3" d="M169.73,25.48c.45.33,0,.84-.08,1.24-.29.34-.81-.09-1.25-.07A.92.92,0,0,1,169.73,25.48Z"/><path class="cls-3" d="M173.73,14.76a1,1,0,0,1,0,1.57c-.48-.22-1.14-.07-1.07-.79C172.5,14.66,173.34,15.08,173.73,14.76Z"/><path class="cls-3" d="M172,24.44c.52.85,2.95.28,1.81,2-.8-.6-2.28.41-2.8-1C171.25,25.21,171.4,24.61,172,24.44Z"/><path class="cls-3" d="M105.54,14c.79.19,1.47.36,2.08-.34-.1-.44-.85-.82-.41-1.35,3.07,1.6,7.39,1.93,8.43,5.67a2.18,2.18,0,0,1-1.45,1.63,3.8,3.8,0,0,0-2.54.11c-.87-1.58-3.61-.24-4.76-1.92.27.18.46-.2.81-.31a17.07,17.07,0,0,1-3-3.28Z"/><path class="cls-3" d="M108.59,31.05c-.26,2.68-3.18.48-4.36.18L102.4,29.3C104.5,28.88,107.2,29,108.59,31.05Z"/><polygon class="cls-4" points="106.91 30.64 105.97 31.45 105.46 30.06 106.02 31.26 106.91 30.64"/><path class="cls-3" d="M303.91,97l.3,1.1c-3.22,1.87-7.38-.75-10-2.56L292.51,94C296.23,93.2,301.21,94.39,303.91,97Z"/><polygon class="cls-3" points="113.39 35.83 112.81 35.16 113.56 35.13 113.39 35.83"/><path class="cls-3" d="M121.17,39.24a5.9,5.9,0,0,1,.94,1.28c-.08.72-1,1-1.53,1.1a6.1,6.1,0,0,1-4.27-2.32l-.26.23c-.35.14.56-.15.81-.32.27-.66-.69-.58-1.07-.78C117.48,38,119.8,37.94,121.17,39.24Z"/><path class="cls-4" d="M119.18,40l-.39-.53c-.7.68,0-.09-.7-.17C118.94,40.15,118.56,38.7,119.18,40Z"/><path class="cls-3" d="M124.22,44.32c1.53-.68,3.89,0,5.21,1.08.47.64,1.17,1.65,0,2a6.94,6.94,0,0,1-4.59-.59c-.12-1.21-1.58-1.26-2.38-1.87C122.83,44.39,124.7,45.8,124.22,44.32Z"/><polygon class="cls-4" points="126.11 44.78 126.23 45.13 126.03 45.09 126.11 44.78"/><path class="cls-3" d="M129.19,98.45c.45.32.05.64.08,1-1.22,1.07-3.08,0-4.24-.49-.16-1.08-1.37,0-1.79-1C125.15,98,127.29,97.05,129.19,98.45Z"/><path class="cls-3" d="M181.22,78.68c.14.35.64.46.74.9,0,.63-.14,1.55-1.34,1.7l-2.9-.67c-.05-.23.18-.27.31-.46l-1-1C177.92,77.51,179.82,78.36,181.22,78.68Z"/><polygon class="cls-4" points="159.09 73.49 158.05 73.44 158.4 73.32 159.09 73.49"/><path class="cls-3" d="M204.16,86.05l.49-.37c-.14-.44-.6-.24-.89-.41,1.23-1.09,2.63-.68,4.34-1,.81.78,2,1.34,1.94,2.8,0,1.26-1.27,1.18-2,1.71-1.23.3-2-1.53-3.33-1l.23-.24-1.69-2.06C203.57,85.72,204.11,85.55,204.16,86.05Z"/><path class="cls-3" d="M207.39,45.55c2.31,1,5.8-.62,7.64,2,.33,1.44-1.25,2.28-2.25,2-2.41-.27-3.52-2.6-5.49-3.63Z"/><path class="cls-3" d="M220.11,98.06c1.1.33,2.57.37,2.76,1.77s-1.13,1-1.74,1.49c-1,.07-1.66-.66-2.51-.95.16-.35.4-.69-.06-.79C219.32,98.67,218.85,98.56,220.11,98.06Z"/><path class="cls-3" d="M224.3,13.38c.91.31,2,.95,2.11,1.87a1.38,1.38,0,0,1-1.67,1.27c-1.17-.26-2.51-.47-3-1.55C221.89,13.32,223.31,13.84,224.3,13.38Z"/><path class="cls-3" d="M222.68,105.19c.84-.4-.27-1.06.09-1.16s.54.52.61.63l.17.34a1.47,1.47,0,0,1-2.13-.47C221.81,104.61,222,105.32,222.68,105.19Z"/><path class="cls-3" d="M230,29.76c-.26.43.07.8.14,1.22l.06-.29.39.08-.06.29c-.22-.13-.34,0-.43.1.31.75,1,1.1,1.47.32-1.8-.67.34-1.88-.54-2.66,1.22,0,3.91,0,4,2.24a3,3,0,0,1-1.71,1.49,8.83,8.83,0,0,0-3.06-.19c.15,0,.36.18.57-.06l.07-.28-1.43-.51c.29-.23-.06-.89.57-1.06l-1-.71C229.34,29.72,229.74,30.1,230,29.76Z"/><path class="cls-3" d="M228.66,139.43c.81.88-.42,1.58-1,1.76-1.7.6-2.7-1.69-4.2-.92C225.05,139.62,227,138.5,228.66,139.43Z"/><path class="cls-4" d="M231.37,30.46c.39.09-.5.38-.45.19l.06-.27Z"/><path class="cls-4" d="M232.34,29.8a4.14,4.14,0,0,0,.45,1.27l-.43.4c.22.14.08.41,0,.69l-.57-1.11c.36-.51.92-.48.53-1.25l-.54.56C231.8,30,232.13,30,232.34,29.8Z"/><path class="cls-3" d="M369.06,144.63l-.73-1.17c.09-.51,3.76,2.34,3.17-.67,2.51,1.72,6.6,1.74,7.58,4.94.33,0,.78.34,1.05,0l-.86-1c2,.06,4.45-.84,6.17.72.22.46.59,1.26,0,1.67-3.45,2.8-7.09-3.6-10.13,1.46a9,9,0,0,1-6.85-1.05l-2.36.3c1.77,0,.63-1.66,1.17-2.29l-1.43-.27,1.2-.71-1.3-1.49C366.44,145.18,368.14,145.61,369.06,144.63Z"/><path class="cls-3" d="M237.62,109.45c.92.7,2.64.4,2.65,2.26-.22,1.81-1.7.61-2.6,1.29-.75,0-.77-1-1.64-.84l.2-.16C236.28,111.42,236.08,108.93,237.62,109.45Z"/><path class="cls-3" d="M248-2.52a3.54,3.54,0,0,1,3.54.78c0,.49.49,1.1-.13,1.34-1.31,1.18-2.78-.22-3.85-.85C248.31-1.27,247.71-2.2,248-2.52Z"/><path class="cls-3" d="M247.87,124.43c-1-.3.42-.79.07-1.15.84,0,2.38-.29,2.77,1-.14,1.43-1,.76-1.68,1.3l-1.64-.83Z"/><polygon class="cls-4" points="248.31 124.24 249.27 124.45 248.57 124.98 248.77 124.82 247.92 124.16 248.41 123.77 248.31 124.24"/><path class="cls-3" d="M269,125.24c.86-.55,2.49-1.25,3.56-.3a3.8,3.8,0,0,1,1.85,2.18c-.88,2.23-3.27,1-4.84,1.49l.24-.16c0-1-1.15-1.07-1.67-1.6A2.44,2.44,0,0,0,269,125.24Z"/><path class="cls-3" d="M263.72,162.54c.17-.3-.29-.6-.37-.82l-.49-.11c2.05.33,4.44-.94,6.2.79.33,1-1.29,2.13-2.43,2-1.69-.05-2.9-.93-4.23-1.62Z"/><path class="cls-3" d="M270.31-3.3c.92-.86,3-.71,4.26,0a2.51,2.51,0,0,1,1.36,2.62c-.2,1.33-1.26,1.8-2.22,2.09-1.06.06-1.6-.83-2.6-.27,1.31-2-2.42-1.12-.82-2.53L269.63-2C270.18-1.94,270.59-2.74,270.31-3.3Z"/><path class="cls-3" d="M265.08,30.63l.26-.12,0,.17.53.12-.24.43-.79-.84C264.86,30.49,264.9,30.7,265.08,30.63Z"/><path class="cls-3" d="M272.67,138.05l.19-.91c1.14,1.09,4.75.07,5,2.75.11,2-2,1.87-3.34,2.32-.45-.93-1.22-.26-1.92-.41-.06-.21.16-.27.3-.46-1.29-.38-.24-.87-1.36-1.54l.24-.15-.9-.72C272.34,139.13,271.22,137.42,272.67,138.05Z"/><path class="cls-3" d="M269.78,31.45c-.11.85-1.21.72-1.48.86l-2.05-.73L267,31c-.66,1.14.75,1,1,1.19.16-.36.67-.54.63-1-.34-1.45-1.66-.65-2.2-.76l.19-.17-1.25-.55C266.92,29.67,269.19,29.26,269.78,31.45Z"/><path class="cls-3" d="M295.72,58.37c.23,0,.38.18.46.31l-.15.7-.61-.54C295.56,58.64,295.78,58.59,295.72,58.37Z"/><path class="cls-3" d="M300.17,121c-.14.17,0,.31.1.53l-.8.37c.25.25.36-.86-.28-1.31C299.32,121,299.87,120.79,300.17,121Z"/><path class="cls-3" d="M322.58,58.84l.21,0-.15.7A.37.37,0,0,1,322.58,58.84Z"/><path class="cls-3" d="M323.87,59.63c.73-.5,0,0-.24.15l.29.59,1.15-.5-.14-.34.14.34c.44-.14.24-.69.4-1-.53-.53-1.34-.07-2,.32l-.16-.24c1.16-.6,2.29-.06,3.64.42a1.49,1.49,0,0,1,.28,1.29c-1.53.85-2.92.05-4.09-.83Z"/><polygon class="cls-4" points="325.08 60.81 324.93 60.57 325.52 60.16 325.08 60.81"/><path class="cls-3" d="M347.6,133c1.25.64.89,1.94.2,2.76-.82-.06-1.48.64-2.32.58,0-.19.43-1.69-.77-1.4.81.67-.72,1-1.45,1l.8-.36c-.36-.82-1.17-.46-1.78-1.09l.8-.36-.77-.88C344,133.07,345.66,132.23,347.6,133Z"/><path class="cls-3" d="M337.64,83.19c1.83.14,3.54-.57,4.37,1.56,0,1.16-1.46,1.62-2.32,1.75L337.28,86l.24-.15-.69-1.19.24-.15-.62-.65C337.17,84,338.08,83.59,337.64,83.19Z"/><path class="cls-4" d="M340,84.05c-.22-.45-.89-.27-1.16-.43a1.67,1.67,0,0,1,1-.33c.72.56-.07,1.45-.08,2-.72.48-1.78-.44-2.26-.12C339.05,85,338.08,83.58,340,84.05Z"/><path class="cls-3" d="M339.8,84.84c-.22.09-.44.15-.37.36l-.07.3-.51-.09.06-.31.31.06-.35-.8Z"/><path class="cls-3" d="M335.76,137.35c.37.29-.06.84,0,1.26-.88.76-2,.35-3.08.13.68-.29,1,.29,1.66-.41l-.31-1.1c-.39.33-1.05.52-1.27.05C333.63,136.94,334.86,136.56,335.76,137.35Z"/><path class="cls-3" d="M348.76,77.3l.26.79-1.33.46c.22,0,.44-.12.38-.33l-.24-.36-1.1.83c-.11-.55-.66-.35-.94-.5l.7.13.07-.39.27.25.68-.9-2.39-.46C346.34,77,347.67,76.47,348.76,77.3Z"/><path class="cls-3" d="M456,182.83c.76-1.53-1.34-.84-1.75-1.53.6-.42,1.43.86,2-.18a1.87,1.87,0,0,0-2.15-.89l-.23,0c1.28-.71,3.77.73,4.73-1.18-.51-.09-.89-1-.31-1.29,1.75.19,2.62-1.24,4.3-1.27l-.63-.62c1.4-.19,3.09.41,4.63.56-.84-1.9,2.58.22,2.53-1.34.63,1.25,1.76,2.05,2.49,1.44,1.57,1.29,3.51,3.5,3.14,5.71.52,1.34-.52,1.36-1,2.86l-.25-.37c-.19.5-1,.88-.46,1.49a2.58,2.58,0,0,0-2.18,1.1c-.16,1-1.25,1.87-2,1.42-.34.16-.28.47-.31.67a1.42,1.42,0,0,0-1.32.3c-2.16.38-4.53.08-6.89,1.56l.79-.29-.27-.87-2,1.42c.35-.87,1.82-1.45,1.37-2.47-.63-.72-1.46-.13-2.19-.15l.8-.39c-.58-.92-2.05.28-2.94-.69,1.46-1.2.58-2.19-.44-3.08l-2.45-.4A2.73,2.73,0,0,0,456,182.83Z"/><path class="cls-3" d="M358.77,87.27c-.32,0-.38.34-.44.63.26.8,1,.71,1.56,1l.44-.66c-.37-.79-1,.24-1.11-.73.72-1,1.71.33,2.61.5.33,1.52-1.38,1.31-2.17,1-1.18.21-1.49-.91-2.23-1.37C357.64,87.67,358.23,86.85,358.77,87.27Z"/><path class="cls-3" d="M374.17,94.2c1.1.74,1.94,2.36,1.39,3,.09.63-.56.82-.72,1.12,1.17.43,2.36,1.79,1.19,3-4.16,1.06-7-2.52-8.7-4l.83-.58-.9-.68C369.37,94.31,371.59,93.49,374.17,94.2Z"/><path class="cls-3" d="M547.57,134.69l-.5-.07c.73-.1,1.25-.74,1.92-1.17-.25-.35-.4-.68-.93-.66l-.23.18c.26-.38,1.72.25,1.39-1l-.27-.24c2.19.64,2.89-1.33,4.86-.73,1.9-1.69,3.6.85,5,.95-.22.79.64,1.25,1,1.9l-.62,4.15c-.86.28-1.39,1-2.23,1.85a6,6,0,0,1,2.51,3.37c.56,2.47-2,2.29-2.85,3.81-.93-.74-2.23-.33-3.22,0l-.57.35c1.19-1.68-1.85-1.51-2.9-2.09l-.7-.1c.45-.34,1.25-.12,1.36-.83l-1.73-.25a1.49,1.49,0,0,0,1.09-.38l-.39-.77c.38.16.54-.23.78-.4s-.23-.54-.41-.78l.9-.38c-.53-.71-1.22-.91-.76-1.87l-2.37-.77.79-.41a1.15,1.15,0,0,0-1.15-.67l-.23.16.61-.63-1.69-.46C546.34,136,548.72,136,547.57,134.69Z"/><path class="cls-3" d="M406.18,158.4l-.42-.6c1.57-.53,3.23-2.83,6-2.15,1.64.17,2.41,1.14,3.9,2.13.37,2.66-1,3.77-2.91,5.19-1.13-.7-3.63.31-5-.13l-.38.24.86-.58L405,160.88C405.63,160.28,405.62,159.12,406.18,158.4Z"/><polygon class="cls-4" points="373.17 116.53 373.21 116.33 373.92 116.46 373.88 116.66 373.17 116.53"/><path class="cls-3" d="M388.2,112.53c0,.21-.27.36-.39.45.38-.35-.17-1.38-.78-.87C387.38,111.86,388.34,111.83,388.2,112.53Z"/><path class="cls-3" d="M396.67,115.12l-.14-.33c-.3-.05,1.3-.28.92-1.08,2.93-1.13,2.93,4,6,1.62,1.14,1.68,3.49,1.37,3.59,3.67-.21,1.74-2,2.37-3.49,2.6l-2.32.09c.18-.38-.28-.68-.61-.63l-1-.18c1-1.29-1.32-.76-1.67-1.77l.31,0c.07-1.55-1.68-1-2.07-2.36l-.75-.44C395.44,115.63,396.28,115.58,396.67,115.12Z"/><path class="cls-3" d="M459.74,130.77c-.65-.41,1.27-.09.38-1,1.11.19,1.12-1,2-1.12l-.18-.23c1.61,1,1.75-2.3,4.22-.34,1.45-1.21,1.92,1.56,3.12,1.25,1.21,2.06,1.16,3,.1,5-1.28,1.45-.79.38-2.5,1.87l-.92.57c-.24-1.7-1.61,1.51-2.13-.35-.83,0-1.44.5-2.31.14a.79.79,0,0,0,.42-.66c-.42-.59-1.19-.41-1.67-.58l.32-.68-1.13-.71c.31,0,.36-.35.41-.66l-.75-.33C458.77,131.65,461,132.13,459.74,130.77Z"/><polygon class="cls-4" points="460.1 142.38 458.34 142.28 459.39 142.26 460.1 142.38"/><path class="cls-3" d="M494.19,183.72l.11-.72c.77.45.73-.6,1.18-.84,1.42.33,3.51.34,3.7,1.83l-.87,2.13c-.65-.49-1.53.4-2.29.59.23-.8-1.29-.51-1.17-.6l.25-.26c-.88-.37-1-.69-1.74-1.53A.53.53,0,0,0,494.19,183.72Z"/><polygon class="cls-4" points="494.5 185.01 494.54 184.81 495.55 184.97 495.52 185.17 494.5 185.01"/><path class="cls-3" d="M530.11,164.49c0-.72.18-.49.44-1.38.85-.17,2.32-.25,2.91.65a2.14,2.14,0,0,1-.37,2.43c-1,.57-.76.2-1.84.45-.63-.73-1.71-1.09-1.43-2.19Z"/><path class="cls-3" d="M536.75,162c0,.52-.31.68-.65.95-.4-.16-1-.57-.56-1.13Z"/><path class="cls-3" d="M541.25,183.31c.79-.41.84-.71.53-1.38l-.27-.35c-.42,0,.85-.08,1,.45.66-.3.45-1.58,1.61-1,.93-.58-.24-1.17-.25-1.79,1.24.09.94,1.37,2.35,1.08,1.58-2.26,3.17,1.08,4.57.14.2,0,1.44.12,1.3,1,.41.16.58-.32.8-.4,1.15.69,1.13,3,2.07,3,.65.51.44,1.2,1,1.69a1.1,1.1,0,0,0,.32,1.3c-1.76.68,1.53,1.78-.51,2.1-.41.65.58,1.12.74,1.35-.51,0-1-.68-1.74-.26,1.72,1.92-1.67,1.42-1.24,3.54-.35-.57-1.14-.16-1.31.32l-.07.5c-1-1.16-2,.65-2.8.52-.68.32-2.21-2.09-3.74-.23-1,.36-.72-2.91-2.58-1.64l-.83.62c-.48-1,1.49-.91.59-1.88-1-.56-.92.58-1.66.68.15-.29,2.27-1.95.18-2.66l-1.81.25c.39-.56,1.1-1.08,1.31-1.77-.21-1.37-1.81.14-1.45-.74.55-.23,1.38-.21,1.19-1.07l-1.59-1.25C540.39,185.57,540,183.42,541.25,183.31Z"/><path class="cls-3" d="M577.06,150.62c0,.51.59.9.31,1.47-.66.95-1.78.09-2-.47C576.38,151,575.66,150.32,577.06,150.62Z"/><path class="cls-3" d="M594.8,110.7c.52-.12.67.31.93.66.28.86-.89,1.21-1.43,1.44-1.09-.36.05-.41-.89-1A1.54,1.54,0,0,1,594.8,110.7Z"/><path class="cls-3" d="M604.71,166.35a5.7,5.7,0,0,1,.77-1.86c1.27-.85,2.69-.66,4.22-.45,1.44,1.66,2.51,2.12,1.95,4,.83.74-1.3,1.07.07,1.78-.66.22-2.2.1-1.43,1.35.31-.69-1.5-.42-1.94-.27l-.05.4c-.31,0-.41-.78-1-.54-.67,1.14-1.05-.67-1.93-.27.34-.16.28-.49.32-.78-.15-.44-.81-.23-1.21-.38l-.23.18.57-.34L604,167.8l.57-.44-.66-.4Z"/><path class="cls-3" d="M608.71,173.62c.36-.37,1.93.27,1.9-1,.38.26.74-.11,1-.39l.07-.5c.13.53.68.31,1,.45.45-.14.2-.61.35-1,.26.44.67.41.92.85l1-.28c0,.3.36.45.43.78,1.64-.72,1.87,1.37,3,1.82s-.3,2.24,1.4,2.67c-2.08,1.58.41,3.26-1.94,5.22-.21,0-.52,0-.69-.29-.75.11-.67,1.14-.43,1.59-.51-.06-.66-.5-.92-.84-.87,1.84-2.73.16-3.64.77.22-.92-1.1-.28-1.33-.93l-.58.43.44-1c-.54.13-1-.55-1.59.29-.36-1.18.56-2.71-1.11-2.63.65-.22.53-.86.71-1.36C606.28,176.9,610,175.24,608.71,173.62Z"/><path class="cls-3" d="M631.05,190.94c.62-.76-.44-1.41-.73-1.54a1.43,1.43,0,0,0,.67-1.17c-.14-.53-.69-.29-1-.43.48-.56,2,.66,1.84-.69l-.45-.57,1.3-.34-.6-1c.6.29,2.19,0,2.15-1.26l-.36-1.28c.22-.09.4.15.48.36,1.14-.06,0-2.18,1.42-1.37-.22-1.57,1.1-2.84,1-3.77.78.4.7-.65,1.05-.92.41.05.56.5,1,.45.17-1.33.76.52,1.28-.35.77.4,1.34,1.72,2.36,1-1.08,1.21.69,1.84.69,2.77,1.66,0,0-1.85,1.22-2.31.57,1.31-.86,2.67,1.16,3.14l.81-.62c.35.46.26,2,1.29,1.2l.54,1.52.85-.11c.06.34-.3.7.08,1s.54-.24.78-.42a2.16,2.16,0,0,0,.46,2.13l.86-.2-.25,1.93c1.57,0-.39,1.49,1.22,1.91-1.56.82.27,2,.74,2.37-.44.15-1,0-1.11.57-.69,1.26.93.86,1.29,1.41h-1.47a2.79,2.79,0,0,0,0,2.07l.31,0c-.08.6-2.13,1.16-.79,2.06-.2-.13-.33.06-.56.23-.5.76.6,1.12.53,1.72-.34.16-1.59-2.26-2.16-.28l-.07,2.26-.71-1.83c-2.88.44-1.22,4.58-4.31,4.39.24-1.11-1-1.47-1.6-1.45-1.43-.19-1.18,1.91-2.68,1.4.56-1.89-2-2.63-3-2.14-.88.31-.71,1.46-1.45,1.57-.12-.74,1.49-1.87.38-2.94l-1.34.54c.49-.44.3-1.41,0-2l-1,.37c.17-.48,1.08-1,.18-1.41l-1.28.25c0-.52.9-.51.57-1.18-.26-.33-.77-1.22-1.38-.58-.54.13,1-1-.32-1.59l-.91-.12c.48-.46,1.44-.64,1.17-1.81l-1.74-.22c.36-.36,1.1-.48,1-1.13L629,191.9C629.71,191.68,630.82,191.93,631.05,190.94Z"/><path class="cls-3" d="M503.41,120.26c1.08.37,2.62-.13,2.94,1.7-.31,1.3-1.13,3.87-2.88,2.54l-.6.44-1.22-1.44c1-.77-.76-1.66.39-2.43C502.56,121.05,503.49,121.1,503.41,120.26Z"/><path class="cls-3" d="M509,124.13l1.49-.27Z"/><polygon class="cls-3" points="513.57 123.39 511.54 123.81 511.58 123.52 511.04 123.73 511.11 123.23 513.57 123.39"/><path class="cls-3" d="M516.54,121.59c-.22.07-.28-.14-.47-.27a3.68,3.68,0,0,0,1.09-.36l-1.13-.7c1,0,1.55-.69,2.18-1.42l-.16-.23c1.73-1.19,4.24-.79,5.89-.11,1.09,1,2,2.8,3.84,2.57.38.9-1.21.44-.39,1.19s.74,2.5,1.18,3.71c-1.65.68-1.39,1.64-2,2.9-.48.44-1.77.13-1.44,1.31l-.58-.91c-1,.37-.55,1.47-.87,2.15l-1-1.2c-.78,1-2.65.41-3.52.69-.9-1.59-2.7,0-3.63.68-.36-1,2-2.18.77-3.62-.23.17-.4.55-.78.4-1-1.31,1.8-1.58.41-2.64l-2.72,1.55C514.93,125.28,517.13,124.48,516.54,121.59Z"/><path class="cls-3" d="M514.52,123.24l1.09-.35Z"/><polygon class="cls-3" points="523.15 134.87 522.96 134.84 523.09 134.02 523.15 134.87"/></g><g class="cls-2"><path class="cls-3" d="M307.54,7.58c.64-.88,1.61-.41,2.39-1.33,1.86,1.09,2,2.32,1.74,4a3.23,3.23,0,0,1-3.92,1A3.2,3.2,0,0,1,307.54,7.58Z"/><path class="cls-3" d="M309.17-3.44c1.19.11.9,1.31,1.25,2.08A2.76,2.76,0,0,1,308.1.22C306.47-.5,306.38-4.15,309.17-3.44Z"/><rect class="cls-3" x="209.59" y="154.06" width="1.07" height="0.38" transform="matrix(0.97, -0.26, 0.26, 0.97, -33.1, 60.5)"/><path class="cls-3" d="M225,153.85l.34,1.24c-1.83,1.55-4.19.62-5.78-.68C221,154.29,223.3,152.58,225,153.85Z"/><path class="cls-3" d="M449.8,63.08c-.31-.07-.69-.53-1.07-.33l1.28-1.7c-1.94-2.21,2.17-2.21,1.78-3.81,2.88-1,4.35-.77,7.25.65,1.42,2.35.61,2.54,1.89,4.89-1.94.78,1.33,4.91-2.55,4.72-1.2,2-3.11,0-4.75,1.43,1.14-.55-1-1.18-1.79-1.55l-1.27,0c.92-1.49-.56-2.28-1.86-3C449.74,64.64,449.48,63.58,449.8,63.08Z"/><path class="cls-3" d="M65.29,167.82a1.39,1.39,0,0,1,1.13,1.39c-.66.75-.92.83-1.87.53C64.76,169,63.89,167.94,65.29,167.82Z"/><path class="cls-3" d="M74.59,124.05a1.6,1.6,0,0,1,1.74.06c-.38.69.06,1.7-.87,2C74.12,126.45,74.06,124.75,74.59,124.05Z"/><path class="cls-3" d="M71.21,101.62c1.22.22,3.24.24,3.28,1.93a2.31,2.31,0,0,1-1.81,3.22c-1.37,1.24-2-.87-3-.88C69.05,104.09,70.32,103,71.21,101.62Z"/><path class="cls-3" d="M75.36,118.7c.4-.12.78-.36,1.14,0a1.83,1.83,0,0,1-.22,1.76C75.35,120.68,74.37,119.26,75.36,118.7Z"/><path class="cls-3" d="M94.59,158c.61.11,1.27-.08,1.86.46-.31,1,.62,1.68-.43,2.55C93.94,161.76,92.93,159.18,94.59,158Z"/><path class="cls-3" d="M90.24,120.88c.94-.68,1.05.71,1.56,1a1.07,1.07,0,0,1-1.86.53C89.62,121.79,90,121.42,90.24,120.88Z"/><path class="cls-3" d="M106.43,150.24c.74.09.56,1,.71,1.5-.11.6-1,.43-1.52.74A1.23,1.23,0,0,1,106.43,150.24Z"/><path class="cls-3" d="M104.15,135.07a1.32,1.32,0,0,1,1,1.87c-.72.06-1.39.67-1.79-.22C102.63,135.77,103.89,135.7,104.15,135.07Z"/><path class="cls-3" d="M108.4,147.54c1.19.66,3.69-1.61,3.46,1.16-1.33-.18-2.43,2-4,.71C108.06,148.93,107.84,148.13,108.4,147.54Z"/><path class="cls-3" d="M23.19,179.72c1-.3,1.94-.56,2.16-1.77-.41-.44-1.52-.39-1.37-1.3,4.57-.18,9.84-2.72,13.58.9a2.91,2.91,0,0,1-.58,2.87,5.14,5.14,0,0,0-2.88,1.84c-2.1-1.23-4.35,2.15-6.8,1,.43,0,.4-.54.72-.9-1.71-.51-4.05-.83-5.6-1.82Z"/><path class="cls-3" d="M311.39,151.41l1,1.16c-2.75,4.14-9.29,3.43-13.58,2.84l-2.92-.92C299.88,151.31,306.58,149.83,311.39,151.41Z"/><path class="cls-3" d="M80.44,30.05c1.65,2.67-1.9,3-3.33,4.08-4.19,1.61-7.5-1.86-11.27-1.37l-2.23-.67C68.87,32.19,75,25.5,80.44,30.05Z"/><polygon class="cls-3" points="109.62 59.75 108.15 59.59 109.47 59.23 109.62 59.75"/><path class="cls-3" d="M112.8,67.41c.68-.62-.48,1.39-1,1l2.57,1L111.2,69Z"/><path class="cls-3" d="M113.83,67.54c0-.69,1.13-.59,1.51-.83.72.52,1.61.66,1.61,1.68-.11.6-.89.39-1.27.64.31-.52.83-.67,1.09-1.3a2.31,2.31,0,0,0-2.54-.31c0,.33.25.37.47.58l-1.14.63.75-.92Z"/><path class="cls-3" d="M117.24,55.92l-.35-.18.35.18-1.16,1C116.81,57,116.94,56.43,117.24,55.92Z"/><path class="cls-3" d="M164.22,149.4c3.4-.28,6.52-4.45,10.4-2.49,1.31,1.48,0,3.48-1.38,3.86-3,1.23-5.84-.8-8.85-.76Z"/><path class="cls-3" d="M164,100.61c1.29-.21,3-.14,3.73.85a1.87,1.87,0,0,1-1.2,2.58c-1.58.43-3.34,1.06-4.59.08C161.06,102.11,163.11,101.79,164,100.61Z"/><path class="cls-3" d="M147,28.06c1.38-.79,2.69-.2,4,.49.47,1.34.76,3.25-.78,3.4C148.87,31.91,145.2,30.13,147,28.06Z"/><path class="cls-3" d="M160.22,59.27c0-.52-.48-.54-.77-.73.16-1.49,1.45-.53,1.87-.24,3.11-1.38,6.5-3.89,10.23-1.45a3.26,3.26,0,0,1-.65,3.89L165.27,62l.25-.32c-2.59-.39-4.54-.52-7-1.71C159.11,59.71,159.94,59.87,160.22,59.27Z"/><path class="cls-3" d="M181.28,116.38c-.05.67.59.9.93,1.35l-.1-.38.52-.14.1.38c-.34,0-.39.23-.45.39.86.69,1.87.69,2-.55-2.6.33-.78-2.43-2.34-2.81,1.47-.79,4.72-2.48,6.22.16a4,4,0,0,1-1.12,2.83c-1.23.08-2.63,1.12-3.82,1.7.21-.06.55,0,.66-.44l-.1-.37-2,.3c.21-.46-.62-1,0-1.61l-1.64-.22C180.47,116.73,181.2,116.94,181.28,116.38Z"/><path class="cls-4" d="M183.39,116.34c.54-.14-.35.76-.42.51l-.1-.37Z"/><path class="cls-4" d="M184.14,114.94c.24.47.89.82,1.36,1.22l-.27.75c.35,0,.35.43.46.81l-1.39-1c.11-.82.81-1.14-.16-1.81l-.28,1C183.61,115.5,184,115.26,184.14,114.94Z"/><path class="cls-3" d="M416.94,171.64l-1.53-1c-.17-.67,5.82.77,3.44-2.57,4,.7,8.91-1.52,11.86,1.86.37-.24,1.12,0,1.26-.59l-1.6-.75c2.43-1,4.91-3.46,7.83-2.49.52.43,1.41,1.22.92,2-2.62,5.31-10.54-.5-11.39,7.33a11.75,11.75,0,0,1-8.81,2.49l-2.65,1.67c2.12-1-.17-2.37.11-3.44l-1.85.47,1-1.53L413.18,174C414.1,173.78,416.38,173.34,416.94,171.64Z"/><path class="cls-3" d="M182.83,66.8a5,5,0,0,1,4.82-1.32c.28.59,1.3,1,.69,1.67-.86,2.22-3.53,1.5-5.25,1.43C184,68.09,182.64,67.37,182.83,66.8Z"/><polygon class="cls-4" points="185.15 67.09 183.6 67.51 183.53 67.27 185.15 67.09"/><path class="cls-3" d="M209.69,51.81c.58-1.59,3.21-2.71,5.27-2.6a3.45,3.45,0,0,1,3.31,2.29c.58,1.71-.45,2.92-1.44,3.85-1.27.73-2.49,0-3.37,1.3.38-3.16-3.68.19-2.58-2.5l-1.22-.35A1.21,1.21,0,0,0,209.69,51.81Z"/><path class="cls-3" d="M224.32,95.42l.24-.32.07.24.72-.2,0,.66-1.48-.5C224,95.39,224.14,95.61,224.32,95.42Z"/><path class="cls-3" d="M230.54,93.51c.39,1.08-1,1.59-1.27,1.92l-2.94.39.51-1.08c-.1,1.76,1.56.78,1.9.83,0-.53.49-1,.13-1.62-1.3-1.52-2.41.25-3.15.44l.14-.32-1.87.12C226,93.13,228.48,91.26,230.54,93.51Z"/><path class="cls-3" d="M278.47,109.86c.23-.19.56,0,.73.09l.25.94-1.07-.28C278.43,110.28,278.67,110.09,278.47,109.86Z"/><path class="cls-3" d="M321,182.38c-.06.29.23.36.44.58l-.74.91c.45.16-.07-1.24-1.09-1.41C320,182.91,320.55,182.36,321,182.38Z"/><path class="cls-3" d="M311.48,94.43l.27-.07.24.92C311.47,95.54,310.86,94.88,311.48,94.43Z"/><path class="cls-3" d="M313.52,94.62c.59-1,0,0-.21.32l.71.54,1.1-1.27-.37-.33.37.33c.46-.43-.11-1-.08-1.4-1-.33-1.67.7-2.3,1.58l-.34-.2c1.06-1.39,2.77-1.42,4.7-1.64a2,2,0,0,1,1.09,1.4c-1.36,1.93-3.53,1.78-5.48,1.41Z"/><polygon class="cls-4" points="315.69 95.33 315.36 95.14 315.85 94.29 315.69 95.33"/><path class="cls-3" d="M384.68,169.63c1.86.08,2.16,1.86,1.8,3.24-1,.39-1.41,1.61-2.45,2-.07-.26-.45-2.3-1.72-1.28,1.35.36-.29,1.64-1.18,2l.75-.89c-.89-.79-1.66.1-2.75-.32l.76-.89-1.44-.63C380.42,171.69,381.9,169.76,384.68,169.63Z"/><path class="cls-3" d="M344.06,115c2.32-.89,4-2.72,6.23-.62.65,1.41-.85,2.79-1.82,3.44l-3.19.82.19-.32-1.53-1,.21-.32-1.13-.43C344,116.24,344.83,115.17,344.06,115Z"/><path class="cls-4" d="M347.39,114.66c-.53-.43-1.25.17-1.67.14a2.32,2.32,0,0,1,1-1c1.2.27.75,1.8,1.05,2.43-.61,1-2.42.49-2.83,1.15C346.85,116.37,344.83,115.17,347.39,114.66Z"/><path class="cls-3" d="M347.66,115.7c-.23.23-.46.43-.26.65l.1.4-.68.18-.1-.41.4-.1-.88-.76Z"/><path class="cls-3" d="M373,181.57c.62.14.41,1.05.68,1.54-.62,1.43-2.14,1.54-3.59,1.91.64-.73,1.35-.21,1.75-1.43l-1-1.16c-.27.62-.95,1.23-1.48.79C370.17,182.29,371.43,181.12,373,181.57Z"/><path class="cls-3" d="M354.24,101.43l.77.79-1.36,1.33c.24-.19.46-.39.27-.62l-.51-.3-.86,1.65c-.44-.61-1,0-1.44-.08L352,104l-.13-.52.47.15.32-1.48-3.2.82C351.07,102.39,352.43,101.05,354.24,101.43Z"/><path class="cls-3" d="M542.14,172.09c.14-2.28-2-.36-2.9-1,.5-.83,2.17.33,2.36-1.27a2.42,2.42,0,0,0-3.06,0l-.29.07c1.18-1.53,4.94-1,5.11-3.87-.66.15-1.58-.76-1-1.44,2.22-.66,2.54-2.87,4.56-3.76l-1.08-.46c1.59-.94,4-1.07,5.9-1.67-2-1.92,3.24-1,2.38-2.95,1.41,1.22,3.18,1.64,3.76.51,2.57.79,6,2.54,6.73,5.45,1.3,1.4,0,2,.25,4l-.49-.33c0,.72-.76,1.6.21,2.08a3.39,3.39,0,0,0-2.08,2.47c.31,1.33-.56,3-1.73,2.8-.33.37-.1.72,0,1a1.89,1.89,0,0,0-1.44,1.05c-2.42,1.57-5.42,2.41-7.51,5.44l.8-.75-.77-.94-1.72,2.79c0-1.26,1.45-2.73.38-3.75-1.13-.58-1.83.57-2.72.93l.76-.89c-1.17-.85-2.32,1.39-3.9.64,1.16-2.22-.42-3-2.11-3.58l-3.17.75A3.56,3.56,0,0,0,542.14,172.09Z"/><path class="cls-3" d="M372.18,107.79c-.37.23-.27.62-.17,1,.77.82,1.63.29,2.49.39l.17-1.06c-.9-.74-1.06.85-1.77-.25.3-1.62,2.28-.58,3.47-.88,1.26,1.67-.95,2.38-2.06,2.5-1.33.92-2.34-.26-3.51-.39C371,108.91,371.28,107.58,372.18,107.79Z"/><path class="cls-3" d="M394.92,107.44c1.76.26,3.69,1.76,3.38,2.83.46.72-.23,1.32-.26,1.78,1.67-.16,3.89.83,3.16,3-4.47,3.64-10,.92-12.85.1L389,114l-1.49-.32C389.11,110.3,391.37,108,394.92,107.44Z"/><path class="cls-3" d="M630.7,66.52l-.66.15c.87-.48,1.21-1.54,1.84-2.39-.49-.31-.84-.65-1.48-.37l-.21.33c.15-.59,2.28-.51,1.24-2L631,62.1c3-.26,3-3.06,5.74-3.27,1.57-3,4.92-.67,6.77-1.22.1,1.09,1.4,1.25,2.11,1.92L646.81,65c-1,.76-1.24,2-1.92,3.37a8.13,8.13,0,0,1,4.76,3c1.88,2.82-1.4,3.81-1.73,6.12-1.52-.48-2.95.65-4,1.58l-.54.71c.68-2.69-3-1-4.62-1.21l-.93.21c.41-.65,1.51-.76,1.3-1.7l-2.28.52c.38-.22.91-.34,1.19-1l-.87-.78c.56,0,.57-.55.78-.88,0-.42-.55-.56-.88-.78l.93-.9c-1-.63-2-.56-1.84-2l-3.34.19.79-.89a1.56,1.56,0,0,0-1.76-.29l-.21.31.46-1.08-2.34.25C629.78,68.71,632.77,67.59,630.7,66.52Z"/><path class="cls-3" d="M469.15,168.15l-.83-.5c1.61-1.51,2.36-5.23,6-5.83,2.08-.66,3.54.13,5.87.54,1.88,3.08.84,5.17-.73,7.92-1.75-.26-4.21,2.3-6.11,2.49l-.33.5.72-1.16-4.71-.27C469.5,170.76,468.87,169.34,469.15,168.15Z"/><polygon class="cls-4" points="406.22 135.14 406.16 134.87 407.09 134.64 407.16 134.91 406.22 135.14"/><path class="cls-3" d="M422.3,122a1.19,1.19,0,0,1-.24.76c.27-.63-1-1.59-1.43-.63C420.92,121.58,422.06,121,422.3,122Z"/><path class="cls-3" d="M434.06,120.45l-.36-.32c-.39.09,1.44-1.06.54-1.83,2.94-3,5.75,3.24,8.18-1.31,2.31,1.42,5-.25,6.38,2.51.69,2.25-1.14,4-2.84,5.1L443.19,126c0-.56-.72-.67-1.09-.42l-1.32.32c.45-2.1-2-.2-3-1.25l.4-.1c-.76-1.94-2.62-.34-3.83-1.74l-1.15-.14C432.83,121.75,433.83,121.23,434.06,120.45Z"/><path class="cls-3" d="M519.74,105.83c-1-.18,1.52-.77,0-1.4,1.46-.35.83-1.88,1.82-2.4l-.33-.2c2.5.4,1-3.74,5-2.6,1.16-2.23,3.18.94,4.49-.06,2.57,1.92,3,3.08,2.72,6.11-.84,2.46-.79.89-2.11,3.6l-.85,1.18c-1.17-2-1.19,2.69-2.81.66-1,.4-1.5,1.37-2.75,1.37a1.07,1.07,0,0,0,.17-1c-.82-.52-1.68.11-2.36.15l0-1-1.77-.29c.36-.22.26-.62.16-1l-1.1,0C519,107.42,522,106.87,519.74,105.83Z"/><polygon class="cls-4" points="526.23 119.98 524.02 120.77 525.3 120.2 526.23 119.98"/><path class="cls-3" d="M589,153.82l-.22-.94c1.15.17.58-1.11,1-1.63,1.9-.3,4.46-1.31,5.43.44v3.08c-1-.29-1.66,1.25-2.5,1.86-.12-1.11-1.82,0-1.72-.17l.18-.45c-1.27,0-1.61-.34-2.89-1A.71.71,0,0,0,589,153.82Z"/><rect class="cls-4" x="589.94" y="154.85" width="1.35" height="0.27" transform="translate(-19.73 136.83) rotate(-13)"/><path class="cls-3" d="M623.49,112.17c-.34-.91,0-.71-.13-1.94,1-.63,2.74-1.45,3.91-.61a2.92,2.92,0,0,1,.73,3.22c-1,1.21-.85.61-2.06,1.45-1.13-.6-2.64-.53-2.83-2Z"/><path class="cls-3" d="M630.47,105.81c.29.63-.05,1-.35,1.49-.57,0-1.47-.24-1.23-1.13Z"/><path class="cls-3" d="M610.22,166.18a3.12,3.12,0,0,1,2.69-1.59c.31.62,1.48.91.72,1.79a4.27,4.27,0,0,1-2.58,1.58c-.38-.47-1.31-.82-.36-1.6Z"/><path class="cls-4" d="M612,166.48l.45.17c.55-.68-1,1.67-1.39,0C611.06,165.58,611.65,166.28,612,166.48Z"/><path class="cls-3" d="M650.07,179.81l-1.75-.31c1.25,0,1.73-1,2.34-1.95a1,1,0,0,0-.6-.84c1,0,1.37-.73,2.1-1.17l-.94-1.08c3.45-.18,8.49-3.73,11.84.72l.48,5.22-.33-.2c-.39,2.63-2.33,3.21-3.11,5.34l.15.68-1.86-.86c-.57,1.11-.51-.44-1.39-.09l-2.23,1.89c-.24-.5.25-.75.45-1.08-.8-1.08-1.38,0-2,.44.29-1.18-1.27-2-3-3.39-.18.47-.59.41-1,.5.66-.15.78-.87,1.12-1.22l-.06-.27-2.34.09C648.13,181.07,650.75,181.6,650.07,179.81Z"/><path class="cls-3" d="M646.33,130.31c.77-.89.68-1.29,0-2l-.49-.3c-.51.25,1-.51,1.41.09.67-.7-.2-2.2,1.51-2,.86-1.17-.86-1.34-1.17-2.11,1.56-.49,1.82,1.26,3.4.22.87-3.58,4.43-.16,5.71-2,.26-.06,1.82-.53,2.09.67.57,0,.56-.68.8-.88,1.74.32,2.79,3.18,4,2.78,1.05.33,1.12,1.3,2,1.65a1.48,1.48,0,0,0,1,1.46c-1.84,1.69,2.72,1.51.37,2.88-.19,1,1.24,1.13,1.54,1.34-.62.27-1.59-.36-2.25.5,3,1.59-1.39,2.57.15,5-.7-.55-1.47.33-1.45,1l.15.66c-1.76-1-2.13,1.75-3.19,2-.68.73-3.7-1.57-4.69,1.47-1.05.93-2.27-3.29-4-.82l-.71,1.18c-1.07-1,1.39-1.85-.18-2.64-1.45-.24-.85,1.16-1.71,1.65,0-.44,1.85-3.53-1.06-3.41l-2.09,1.17c.2-.88.82-1.88.75-2.84-.91-1.6-2.15,1.05-2.13-.22.56-.56,1.59-.93,1-1.91l-2.56-.81C646.36,133.54,644.84,131.05,646.33,130.31Z"/><path class="cls-3" d="M714.36,155.36c-.17-.14-.34-.36-.59-.19-.16-1.34,1.57-3,.66-4.61,2.27-.49.91-4.13,3.5-3.71,1-.49-.06-2.21,1.67-1.33a1.13,1.13,0,0,0,.16-1.16c2.86.37,5.2-1.7,7.85-.29,1.5-.18,1.71,2.16,3.34,1.26l-.52.8c.85,1.37,3.51,1.48,2.48,3.81l1,1.47c-1,1.19-1.08,2.77-1.07,4.71-.65.84-2.83,1-2.07,2.69-2-.41-1.24,2-2,2.84l-.8-.54-.7,1.25c-.24-.48,0-1.11-.56-1.26-1.45.31-2,1.44-2.76,2.57-.06-.27-.28-.65.06-1-1-.92-1.17.94-2.18.86l-.14-.66-1.19.25.18-.45c-1.08-1.17-2,.43-2.92.63,0-.56.93-1.47,0-1.95l-1.62-1.07c0,.43-.42.51-.83.6l.49-2.2c-1.31-.86-1.6,1.6-2.7,1C715.45,158.47,713.06,157,714.36,155.36Z"/><path class="cls-3" d="M675.17,72.36c.28.63,1.17.85,1.09,1.7-.38,1.5-2.19.93-2.74.34C674.52,73.19,673.28,72.63,675.17,72.36Z"/><path class="cls-3" d="M678.85,14c.61-.4,1,.07,1.5.39.76,1-.58,1.93-1.15,2.48-1.55.05-.12-.54-1.62-.92A2,2,0,0,1,678.85,14Z"/><path class="cls-3" d="M717,79.39a7.74,7.74,0,0,1,.12-2.7c1.2-1.66,3.06-2.06,5.07-2.49,2.55,1.42,4.1,1.51,4.25,4.13,1.37.54-1.14,1.93.88,2.2-.71.58-2.69,1.14-1.16,2.36.07-1-2.07.16-2.55.55l.12.52c-.41.09-.86-.79-1.46-.24-.31,1.75-1.61-.36-2.53.55.35-.36.13-.74,0-1.13-.38-.48-1.1.09-1.67.08l-.21.33.55-.69-1.67-1.33.51-.81-1-.2Z"/><path class="cls-3" d="M568.42,70.4c1.54-.08,3.21-1.47,4.53.63.26,1.79.53,5.38-2.32,4.61l-.51.84-2.25-1.17c.8-1.45-1.79-1.69-.74-3.21C567.77,71.81,568.94,71.4,568.42,70.4Z"/><path class="cls-3" d="M577.35,72.41l1.72-1.09Z"/><polygon class="cls-3" points="582.66 69.2 580.35 70.73 580.26 70.35 579.68 70.89 579.53 70.23 582.66 69.2"/><path class="cls-3" d="M585.48,65.47c-.24.2-.43,0-.73-.1.47-.41.87-.5,1.18-1l-1.76-.29c1.28-.56,1.59-1.64,2-2.86l-.31-.21c1.57-2.34,4.91-3.12,7.31-3.08,1.87.72,4,2.46,6.08,1.29.91.94-1.29,1.15.1,1.68s2.16,2.73,3.3,4c-1.72,1.66-.92,2.73-1.06,4.6-.38.79-2.14,1-1.15,2.35L599.29,71c-1.06.94.05,2.1,0,3.1l-1.89-1c-.48,1.65-3.11,1.82-4,2.6-1.9-1.53-3.36,1.33-4.18,2.67-.95-1.07,1.4-3.71-.84-4.88-.21.32-.22.88-.78.88-1.94-1.11,1.46-2.87-.8-3.48l-2.62,3.29C585.31,70.86,587.66,68.76,585.48,65.47Z"/><path class="cls-3" d="M583.78,68.53l1.19-1Z"/><polygon class="cls-3" points="600.31 78.69 600.07 78.75 599.82 77.66 600.31 78.69"/></g><circle class="cls-5" cx="229.02" cy="15.6" r="13.24"/><circle class="cls-5" cx="259.49" cy="15.6" r="12.23"/><circle class="cls-5" cx="287.17" cy="15.6" r="10.44"/><circle class="cls-5" cx="311.52" cy="15.6" r="8.91"/><circle class="cls-5" cx="333.04" cy="15.6" r="7.61"/><circle class="cls-5" cx="352.14" cy="15.6" r="6.49"/><circle class="cls-5" cx="134.6" cy="15.6" r="13.24"/><circle class="cls-5" cx="104.12" cy="15.6" r="12.23"/><circle class="cls-5" cx="76.45" cy="15.6" r="10.44"/><circle class="cls-5" cx="30.57" cy="15.6" r="7.61"/><circle class="cls-5" cx="52.09" cy="15.6" r="8.91"/><circle class="cls-5" cx="11.47" cy="15.6" r="6.49"/><circle class="cls-5" cx="197.55" cy="15.6" r="13.24"/><circle class="cls-5" cx="166.07" cy="15.6" r="13.24"/><circle class="cls-5" cx="229" cy="43.05" r="13.24"/><circle class="cls-5" cx="259.47" cy="43.05" r="12.23"/><circle class="cls-5" cx="287.15" cy="43.05" r="10.44"/><circle class="cls-5" cx="311.5" cy="43.05" r="8.91"/><circle class="cls-5" cx="333.02" cy="43.05" r="7.61"/><circle class="cls-5" cx="352.13" cy="43.05" r="6.49"/><circle class="cls-5" cx="134.58" cy="43.05" r="13.24"/><circle class="cls-5" cx="104.11" cy="43.05" r="12.23"/><circle class="cls-5" cx="76.43" cy="43.05" r="10.44"/><circle class="cls-5" cx="30.56" cy="43.05" r="7.61"/><circle class="cls-5" cx="52.08" cy="43.05" r="8.91"/><circle class="cls-5" cx="11.46" cy="43.05" r="6.49"/><circle class="cls-5" cx="197.53" cy="43.05" r="13.24"/><circle class="cls-5" cx="166.05" cy="43.05" r="13.24"/><circle class="cls-5" cx="227.02" cy="71.54" r="13.24"/><circle class="cls-5" cx="257.49" cy="71.54" r="12.23"/><circle class="cls-5" cx="285.17" cy="71.54" r="10.44"/><circle class="cls-5" cx="309.52" cy="71.54" r="8.91"/><circle class="cls-5" cx="331.04" cy="71.54" r="7.61"/><circle class="cls-5" cx="350.14" cy="71.54" r="6.49"/><circle class="cls-5" cx="132.6" cy="71.54" r="13.24"/><circle class="cls-5" cx="102.13" cy="71.54" r="12.23"/><circle class="cls-5" cx="74.45" cy="71.54" r="10.44"/><circle class="cls-5" cx="28.58" cy="71.54" r="7.61"/><circle class="cls-5" cx="50.1" cy="71.54" r="8.91"/><circle class="cls-5" cx="9.47" cy="71.54" r="6.49"/><circle class="cls-5" cx="195.55" cy="71.54" r="13.24"/><circle class="cls-5" cx="164.07" cy="71.54" r="13.24"/><circle class="cls-5" cx="229.52" cy="100.03" r="13.24"/><circle class="cls-5" cx="259.99" cy="100.03" r="12.23"/><circle class="cls-5" cx="287.67" cy="100.03" r="10.44"/><circle class="cls-5" cx="312.02" cy="100.03" r="8.91"/><circle class="cls-5" cx="333.54" cy="100.03" r="7.61"/><circle class="cls-5" cx="352.64" cy="100.03" r="6.49"/><circle class="cls-5" cx="135.1" cy="100.03" r="13.24"/><circle class="cls-5" cx="104.63" cy="100.03" r="12.23"/><circle class="cls-5" cx="76.95" cy="100.03" r="10.44"/><circle class="cls-5" cx="31.08" cy="100.03" r="7.61"/><circle class="cls-5" cx="52.6" cy="100.03" r="8.91"/><circle class="cls-5" cx="11.97" cy="100.03" r="6.49"/><circle class="cls-5" cx="198.05" cy="100.03" r="13.24"/><circle class="cls-5" cx="166.57" cy="100.03" r="13.24"/><circle class="cls-5" cx="320.92" cy="130.9" r="13.24"/><circle class="cls-5" cx="351.39" cy="130.9" r="12.23"/><circle class="cls-5" cx="379.07" cy="130.9" r="10.44"/><circle class="cls-5" cx="403.42" cy="130.9" r="8.91"/><circle class="cls-5" cx="424.94" cy="130.9" r="7.61"/><circle class="cls-5" cx="444.04" cy="130.9" r="6.49"/><circle class="cls-5" cx="226.49" cy="130.9" r="13.24"/><circle class="cls-5" cx="196.02" cy="130.9" r="12.23"/><circle class="cls-5" cx="168.35" cy="130.9" r="10.44"/><circle class="cls-5" cx="122.47" cy="130.9" r="7.61"/><circle class="cls-5" cx="143.99" cy="130.9" r="8.91"/><circle class="cls-5" cx="103.37" cy="130.9" r="6.49"/><circle class="cls-5" cx="289.44" cy="130.9" r="13.24"/><circle class="cls-5" cx="257.97" cy="130.9" r="13.24"/><circle class="cls-5" cx="322.1" cy="159.96" r="13.24"/><circle class="cls-5" cx="352.57" cy="159.96" r="12.23"/><circle class="cls-5" cx="380.24" cy="159.96" r="10.44"/><circle class="cls-5" cx="404.6" cy="159.96" r="8.91"/><circle class="cls-5" cx="426.12" cy="159.96" r="7.61"/><circle class="cls-5" cx="445.22" cy="159.96" r="6.49"/><circle class="cls-5" cx="227.67" cy="159.96" r="13.24"/><circle class="cls-5" cx="197.2" cy="159.96" r="12.23"/><circle class="cls-5" cx="169.53" cy="159.96" r="10.44"/><circle class="cls-5" cx="123.65" cy="159.96" r="7.61"/><circle class="cls-5" cx="145.17" cy="159.96" r="8.91"/><circle class="cls-5" cx="104.55" cy="159.96" r="6.49"/><circle class="cls-5" cx="290.62" cy="159.96" r="13.24"/><circle class="cls-5" cx="259.15" cy="159.96" r="13.24"/><circle class="cls-5" cx="322.66" cy="189.69" r="13.24"/><circle class="cls-5" cx="353.13" cy="189.69" r="12.23"/><circle class="cls-5" cx="380.81" cy="189.69" r="10.44"/><circle class="cls-5" cx="405.16" cy="189.69" r="8.91"/><circle class="cls-5" cx="426.68" cy="189.69" r="7.61"/><circle class="cls-5" cx="445.78" cy="189.69" r="6.49"/><circle class="cls-5" cx="228.24" cy="189.69" r="13.24"/><circle class="cls-5" cx="197.76" cy="189.69" r="12.23"/><circle class="cls-5" cx="170.09" cy="189.69" r="10.44"/><circle class="cls-5" cx="124.21" cy="189.69" r="7.61"/><circle class="cls-5" cx="145.73" cy="189.69" r="8.91"/><circle class="cls-5" cx="105.11" cy="189.69" r="6.49"/><circle class="cls-5" cx="291.19" cy="189.69" r="13.24"/><circle class="cls-5" cx="259.71" cy="189.69" r="13.24"/></g><g id="Layer_3" data-name="Layer 3"><circle class="cls-6" cx="353.24" cy="155.52" r="69.89"/><circle class="cls-7" cx="353.24" cy="156" r="76.69"/><circle class="cls-8" cx="353.23" cy="156.23" r="83.5"/></g><path class="cls-9" d="M364.74,117.72l-10.69,1.87-.51,2.88,1.6,9.11c.31,1.78,12-.28,11.67-2.06Z"/><path class="cls-10" d="M361.22,119.56a2.36,2.36,0,1,1-2,2.75A2.41,2.41,0,0,1,361.22,119.56Z"/><ellipse class="cls-10" cx="358.8" cy="126.36" rx="1.85" ry="1.77" transform="translate(-16.49 64.22) rotate(-10)"/><ellipse class="cls-10" cx="362.68" cy="127.33" rx="1.23" ry="1.18" transform="translate(-16.59 64.84) rotate(-9.99)"/><path class="cls-10" d="M360.26,129.45a.86.86,0,0,1,1,.67.84.84,0,0,1-.71,1,.83.83,0,1,1-.29-1.63Z"/><path class="cls-11" d="M359.37,109.84l-.39-1.32c1-.54,3.48-1,4.64.25,2.45-1,4.5,2.89.62,3.32Z"/><path class="cls-4" d="M359.24,108.87c.78-.47,3.1-1,4.23.19,2.64-1,3.89,3.13.28,3l1,5.61-8.52,1.49c0,.6-1,1.27-2,1.07a1.64,1.64,0,0,1-.55,1.5l.71-4.06Z"/><g class="cls-12"><path class="cls-13" d="M367.77,124.68l-1.5-8.49c.94-.19,1.86-.17,2.1.53a16.85,16.85,0,0,1,.48,5.63A3.82,3.82,0,0,1,367.77,124.68Zm-16.51,3.88c-.39,2.19-14.73-.34-14.34-2.53l3.68-20.92L355,107.64Zm-15.71-11a18.31,18.31,0,0,1,.53-6.19c.26-.77,1.27-.79,2.3-.58l-1.64,9.33A4.17,4.17,0,0,1,335.55,117.6Zm35.27,4.4a22.38,22.38,0,0,0-.89-7.09c-.47-1.35-2.41-1.22-4-.84l-.41-2.32a6.23,6.23,0,0,1-1,.32L367.61,130c.35,2-12.69,4.3-13.05,2.3l-1.37-7.81,3.2-18.17-16.7-2.94-.89,5.1c-1.79-.42-3.92-.56-4.44.92a24.83,24.83,0,0,0-1,7.8,8,8,0,0,0,2.9,5.52l-.87,5c-.48,2.7,16.22,5.64,16.69,2.94l.54-3,1.16,6.59c.43,2.46,15.61-.22,15.17-2.68l-.79-4.51A7.31,7.31,0,0,0,370.82,122Z"/></g><path class="cls-9" d="M340.07,112.51l12.84,2.24-2.28,13c-.34,2-13.18-.3-12.83-2.27Z"/><path class="cls-11" d="M357.7,107.31c.21-2.92-3.44-5-6.11-3.8-.87-2.45-4.08-2.5-5.41-1.21-1.13-.59-3.6-1-4.87.37-2.71-1.1-5,3.17-.7,3.64,6.23-1,13.12,11.36,13.12,11.36,1.16.21,2.73-.37,2.39-2.22.7.09,1.77-1.11,1.54-2.2C360.44,112.49,360.2,108.05,357.7,107.31Z"/><path class="cls-4" d="M357.12,107.6c.22-3.25-4.08-4.42-6-3.64a3.23,3.23,0,0,0-5-1.19c-.86-.52-3.41-1.08-4.65.21-2.91-1.14-4.29,3.44-.31,3.36l-1.09,6.17,9.37,1.63a1.82,1.82,0,0,0,2.2,1.19c-.23,1.18.94,2.22,2.09,2.34a1.78,1.78,0,0,0,1.78-2.53,1.55,1.55,0,0,0,1.49-2.07C359.66,112.39,359.66,108.14,357.12,107.6Z"/><path class="cls-11" d="M352.53,105.76c.12-1.11-.76-2.48-2.8-2.08-.28-.48-.78-.74-1.66-.27,1,0,1.33.29,1.5.82a2.2,2.2,0,0,1,2.27,1.86,1.42,1.42,0,0,1,1.16,1.2A1,1,0,0,0,352.53,105.76Z"/><path class="cls-11" d="M353.65,110.35c-1.48-1.45-3-.79-3.47.22a1,1,0,0,0-1.23,1,1.4,1.4,0,0,1,1.62-.37,2.21,2.21,0,0,1,2.92-.33c.43-.35.88-.4,1.7.14C354.72,110.15,354.15,110.1,353.65,110.35Z"/><path class="cls-10" d="M343.94,114.53a2.6,2.6,0,1,0,2.22,3A2.65,2.65,0,0,0,343.94,114.53Z"/><path class="cls-10" d="M344.6,121.65a2,2,0,1,1,1.67,2.28A2,2,0,0,1,344.6,121.65Z"/><path class="cls-10" d="M342.56,121.8a1.3,1.3,0,1,0,1.11,1.51A1.32,1.32,0,0,0,342.56,121.8Z"/><path class="cls-10" d="M345,125.41a.94.94,0,0,0-1.09.73,1,1,0,1,0,1.09-.73Z"/><polygon class="cls-14" points="359.9 105.67 365.89 100.49 363.03 98.46 359.9 105.67"/><polygon class="cls-14" points="362.66 106.74 368.35 108.01 368.35 104.99 362.66 106.74"/><polygon class="cls-14" points="357.93 103.76 359.34 97.68 356.27 97.68 357.93 103.76"/><path class="cls-15" d="M135.17,97.77,118,106.46l-4-7.92-3.85,8.6-9.13-2,4,7.87-17.08,8.65L66.22,78.85l16.92-8.56,10.73,4.86,2.55-11.57,17.08-8.64Z"/><path class="cls-15" d="M179.9,82l-18.07,6.48-2-5.48-6.78,2.43,2,5.48-17.9,6.42L123.43,59.07c-1.4-3.89-.4-7.69,4.45-9.44l28.75-10.31a7.09,7.09,0,0,1,9.55,4.41ZM153.55,65.22l-2.85-8-6.78,2.43,2.86,8Z"/><path class="cls-15" d="M226.08,70.13l-18.49,4.72L205.08,65l-7,1.78,2.51,9.83-18.48,4.72L170.25,34.85l18.49-4.72L191.26,40l7-1.78-2.53-9.88,18.49-4.73,4.28,16.75-5.71,8.45,9.12,4.92Z"/><path class="cls-15" d="M265.68,63.27l-37.11,6.52-8.3-47.28L257.38,16,260,30.65,252.21,32l.91,5.2,7.75-1.36,1.33,7.63-7.74,1.36.9,5.14,7.75-1.36Z"/><path class="cls-15" d="M321.33,57.79l-29.89,2.54a7,7,0,0,1-8-6.73l-2.81-33.12c-.41-4.79,2.66-7.64,6.73-8L317.27,10l1.26,14.82-7.83.67,1.54,18.17,7.83-.66Z"/><path class="cls-15" d="M368.53,49.26c.1,4.62-2.43,7.43-7.22,7.53l-30.6.62c-5.45.12-7.42-2.31-7.52-7.22L322.51,17c-.1-4.8,2.49-7.44,7.23-7.53l30.59-.62c4.56-.1,7.41,1.52,7.53,7.22Zm-19.2-5.91-.42-20.81-7.2.15.42,20.81Z"/><path class="cls-15" d="M416.62,51.53c-.23,4.61-2.94,7.24-7.73,7L378.33,57c-5.45-.27-7.25-2.82-7-7.74L373,16.11c.24-4.8,3-7.24,7.74-7l30.56,1.5c4.55.22,7.28,2,7,7.73ZM397.88,44.3l1-20.79-7.19-.36-1,20.8Z"/><path class="cls-15" d="M456.26,63.57l-37.43-4.34,5.53-47.68L454,15l-3.82,32.9,7.81.9Z"/><path class="cls-15" d="M519.82,42.26l-8.45-1.8-1.12,5.23,8.4,1.78-4.25,20c-.91,4.29-4,6.7-8.75,5.69l-30.81-6.56L477.94,52l8.45,1.8,1.13-5.34-8.45-1.8,4.22-19.84c1.07-5,4.23-6.64,8.75-5.68l30.87,6.57Z"/><path class="cls-15" d="M559,88.2l-18.22-5.47L543.7,73l-6.89-2.08-2.92,9.71-18.28-5.49,13.82-46,18.28,5.49-2.94,9.77,6.9,2.07,2.93-9.76,18.22,5.47Z"/><path class="cls-15" d="M589.18,100.35l-27.73-11,17.69-44.63,27.73,11Z"/><path class="cls-15" d="M645.35,91.43l-6.24-3.21L624,117.68,597.43,104l15.16-29.45-6.3-3.24,6.81-13.23L652.16,78.2Z"/><path class="cls-15" d="M648.38,133.42l-14.11-9.36,8.23-12.4L656.6,121Zm22.6-28-16.57,11-6.7-4.44,3.55-19.46,6.8-10.26,19.65,13Z"/><path class="cls-16" d="M307.47,160.09H302v-2.51l-2.08,1.68-2.05-1.66v2.49h-5.43V146.5h5.37l2.1,2.6,2.12-2.6h5.42Z"/><path class="cls-16" d="M316.94,160.09h-8.45V146.5h8.45Z"/><path class="cls-16" d="M330.81,160.09h-5.4v-2.87h-2v2.87H318V146.5h5.41v2.89h2V146.5h5.4v4.89l-2.16,1.92,2.16,2Z"/><path class="cls-16" d="M342.43,160.09H331.75V146.5h10.68v4.21H340.2v1.5h2.23v2.19H340.2v1.48h2.23Z"/><path class="cls-16" d="M356.16,158a1.89,1.89,0,0,1-2.11,2.1H343.28V146.5h10.79c1.5,0,2.09.66,2.09,2.07Zm-5.42-1.77v-5.9h-2v5.9Z"/><path class="cls-16" d="M370,160.09h-5.41v-2.87h-2v2.87h-5.4V146.5h5.4v2.89h2V146.5H370v4.89l-2.16,1.92,2.16,2Z"/><path class="cls-16" d="M381.56,160.09H370.88V146.5h8.45v9.38h2.23Z"/><path class="cls-16" d="M393.08,160.09H382.41V146.5h10.67v4.21h-2.22v1.5h2.22v2.19h-2.22v1.48h2.22Z"/><path class="cls-16" d="M402.38,160.09h-8.45V146.5h8.45Z"/><path class="cls-16" d="M415.59,160.09h-5.06v-2.87h-2v2.87H403.4V146.5h4.73l2.4,2v-2h5.06Z"/></svg>